<svg width="110" height="143" viewBox="0 0 110 143" fill="none" xmlns="http://www.w3.org/2000/svg">
<rect width="110" height="143" fill="white"/>
<path d="M19.5137 38.0449H22.5811L16.5254 46.1309L15.4971 51H12.79L13.8184 46.1309L11.0586 38.0449H14.249L15.7344 43.6875L19.5137 38.0449ZM33.8662 39.1611C34.9209 40.3506 35.1963 42.1318 34.6924 44.5049C34.1943 46.8311 33.1602 48.6123 31.5898 49.8486C30.4004 50.8564 28.8799 51.3604 27.0283 51.3604C25.1768 51.3604 23.8672 50.8564 23.0996 49.8486C22.0508 48.6123 21.7754 46.8311 22.2734 44.5049C22.7773 42.1318 23.8115 40.3506 25.376 39.1611C26.5654 38.1533 28.0859 37.6494 29.9375 37.6494C31.7891 37.6494 33.0986 38.1533 33.8662 39.1611ZM29.4541 39.9434C28.3818 39.9434 27.4414 40.3389 26.6328 41.1299C25.8301 41.9209 25.2734 43.0459 24.9629 44.5049C24.6523 45.9639 24.7314 47.0889 25.2002 47.8799C25.6689 48.6709 26.4395 49.0664 27.5117 49.0664C28.584 49.0664 29.5186 48.6709 30.3154 47.8799C31.1182 47.0889 31.6748 45.9639 31.9854 44.5049C32.29 43.0518 32.2109 41.9297 31.748 41.1387C31.291 40.3418 30.5264 39.9434 29.4541 39.9434ZM48.5527 38.0449L46.8564 46.0078C46.5635 47.3848 46.1211 48.457 45.5293 49.2246C44.4336 50.6309 42.7637 51.334 40.5195 51.334C38.2754 51.334 36.9014 50.6309 36.3975 49.2246C36.1338 48.457 36.1484 47.3848 36.4414 46.0078L38.1377 38.0449H40.8887L39.1924 46.0078C39.0049 46.8984 38.9727 47.5488 39.0957 47.959C39.2715 48.6855 39.9102 49.0488 41.0117 49.0488C42.1074 49.0488 42.8955 48.6855 43.376 47.959C43.6748 47.5488 43.918 46.8984 44.1055 46.0078L45.8018 38.0449H48.5527ZM56.252 50.3057C56.2578 49.9424 56.2988 49.5703 56.375 49.1895L56.6123 47.9854C56.7764 47.1592 56.7412 46.6084 56.5068 46.333C56.2783 46.0576 55.7656 45.9199 54.9688 45.9199H52.1738L51.1016 51H48.4561L51.207 38.0449H57.5615C58.4639 38.0625 59.1377 38.1738 59.583 38.3789C60.0283 38.584 60.3799 38.8857 60.6377 39.2842C60.8486 39.6123 60.9922 39.9756 61.0684 40.374C61.1504 40.7725 61.1387 41.2266 61.0332 41.7363C60.8984 42.3516 60.6113 42.958 60.1719 43.5557C59.7383 44.1475 59.1377 44.5664 58.3701 44.8125C58.915 45.0527 59.2637 45.3955 59.416 45.8408C59.5742 46.2803 59.5566 46.9541 59.3633 47.8623L59.1787 48.7324C59.0557 49.3242 58.9941 49.7256 58.9941 49.9365C58.9941 50.2705 59.1055 50.5166 59.3281 50.6748L59.2666 51H56.2871C56.2637 50.7129 56.252 50.4814 56.252 50.3057ZM56.5156 40.2949H53.3691L52.6309 43.7754H55.6982C56.3076 43.7754 56.7793 43.7051 57.1133 43.5645C57.7051 43.3184 58.0801 42.832 58.2383 42.1055C58.4023 41.3203 58.2529 40.793 57.79 40.5234C57.5264 40.3711 57.1016 40.2949 56.5156 40.2949ZM17.2285 71.3057C17.2344 70.9424 17.2754 70.5703 17.3516 70.1895L17.5889 68.9854C17.7529 68.1592 17.7178 67.6084 17.4834 67.333C17.2549 67.0576 16.7422 66.9199 15.9453 66.9199H13.1504L12.0781 72H9.43262L12.1836 59.0449H18.5381C19.4404 59.0625 20.1143 59.1738 20.5596 59.3789C21.0049 59.584 21.3564 59.8857 21.6143 60.2842C21.8252 60.6123 21.9688 60.9756 22.0449 61.374C22.127 61.7725 22.1152 62.2266 22.0098 62.7363C21.875 63.3516 21.5879 63.958 21.1484 64.5557C20.7148 65.1475 20.1143 65.5664 19.3467 65.8125C19.8916 66.0527 20.2402 66.3955 20.3926 66.8408C20.5508 67.2803 20.5332 67.9541 20.3398 68.8623L20.1553 69.7324C20.0322 70.3242 19.9707 70.7256 19.9707 70.9365C19.9707 71.2705 20.082 71.5166 20.3047 71.6748L20.2432 72H17.2637C17.2402 71.7129 17.2285 71.4814 17.2285 71.3057ZM17.4922 61.2949H14.3457L13.6074 64.7754H16.6748C17.2842 64.7754 17.7559 64.7051 18.0898 64.5645C18.6816 64.3184 19.0566 63.832 19.2148 63.1055C19.3789 62.3203 19.2295 61.793 18.7666 61.5234C18.5029 61.3711 18.0781 61.2949 17.4922 61.2949ZM32.7676 69.6709L32.2754 72H22.458L25.209 59.0449H34.71L34.2178 61.3389H27.3623L26.7822 64.0898H33.0752L32.5918 66.3398H26.2988L25.5957 69.6709H32.7676ZM40.458 64.0898L42.5762 64.626C43.502 64.8604 44.1729 65.1738 44.5889 65.5664C45.2334 66.1758 45.4326 67.0576 45.1865 68.2119C44.9346 69.3955 44.2725 70.3799 43.2002 71.165C42.1279 71.9443 40.7656 72.334 39.1133 72.334C37.4258 72.334 36.1807 71.9502 35.3779 71.1826C34.5752 70.4092 34.3174 69.3486 34.6045 68.001H37.1885C37.1475 68.5928 37.2148 69.0352 37.3906 69.3281C37.7188 69.8613 38.416 70.1279 39.4824 70.1279C40.1211 70.1279 40.6543 70.0576 41.082 69.917C41.8965 69.6475 42.3799 69.1465 42.5322 68.4141C42.626 67.9863 42.5088 67.6553 42.1807 67.4209C41.8584 67.1924 41.3135 66.9902 40.5459 66.8145L39.2363 66.5068C37.9531 66.2021 37.0918 65.8711 36.6523 65.5137C35.9082 64.916 35.6709 63.9814 35.9404 62.71C36.1865 61.5498 36.8135 60.5859 37.8213 59.8184C38.8291 59.0508 40.1504 58.667 41.7852 58.667C43.1504 58.667 44.2373 59.0303 45.0459 59.7568C45.8545 60.4775 46.1357 61.5264 45.8896 62.9033H43.2881C43.4111 62.124 43.1914 61.5703 42.6289 61.2422C42.2539 61.0254 41.7529 60.917 41.126 60.917C40.4287 60.917 39.8398 61.0576 39.3594 61.3389C38.8848 61.6201 38.5947 62.0127 38.4893 62.5166C38.3896 62.9795 38.5215 63.3252 38.8848 63.5537C39.1133 63.7061 39.6377 63.8848 40.458 64.0898ZM59.5566 59.0449L57.8604 67.0078C57.5674 68.3848 57.125 69.457 56.5332 70.2246C55.4375 71.6309 53.7676 72.334 51.5234 72.334C49.2793 72.334 47.9053 71.6309 47.4014 70.2246C47.1377 69.457 47.1523 68.3848 47.4453 67.0078L49.1416 59.0449H51.8926L50.1963 67.0078C50.0088 67.8984 49.9766 68.5488 50.0996 68.959C50.2754 69.6855 50.9141 70.0488 52.0156 70.0488C53.1113 70.0488 53.8994 69.6855 54.3799 68.959C54.6787 68.5488 54.9219 67.8984 55.1094 67.0078L56.8057 59.0449H59.5566ZM66.9219 72H64.2939L64.1621 61.1279C64.1152 61.374 64.0449 61.7256 63.9512 62.1826C63.8633 62.6338 63.79 62.9854 63.7314 63.2373L61.877 72H59.3545L62.1055 59.0449H66.043L66.2275 69.2314L70.7363 59.0449H74.6299L71.8789 72H69.3564L71.2109 63.2373C71.2695 62.9854 71.3486 62.6338 71.4482 62.1826C71.5537 61.7256 71.6299 61.374 71.6768 61.1279L66.9219 72ZM84.7812 69.6709L84.2891 72H74.4717L77.2227 59.0449H86.7236L86.2314 61.3389H79.376L78.7959 64.0898H85.0889L84.6055 66.3398H78.3125L77.6094 69.6709H84.7812Z" fill="black"/>
<path d="M78.5152 35.9184C78.6424 35.4151 79.3576 35.4151 79.4848 35.9184L80.6765 40.6346C80.7528 40.9367 81.0839 41.0962 81.3677 40.9675L85.798 38.9587C86.2709 38.7443 86.7167 39.3035 86.4025 39.7167L83.4583 43.589C83.2697 43.837 83.3514 44.1953 83.629 44.3369L87.9618 46.5482C88.4242 46.7842 88.265 47.4815 87.746 47.4935L82.8829 47.6059C82.5714 47.6131 82.3422 47.9004 82.4045 48.2057L83.3771 52.9719C83.4809 53.4806 82.8366 53.7909 82.5036 53.3926L79.3836 49.6605C79.1837 49.4214 78.8163 49.4214 78.6164 49.6605L75.4964 53.3926C75.1634 53.7909 74.5191 53.4806 74.6229 52.9719L75.5955 48.2057C75.6578 47.9004 75.4286 47.6131 75.1171 47.6059L70.254 47.4935C69.735 47.4815 69.5758 46.7842 70.0382 46.5482L74.371 44.3369C74.6486 44.1953 74.7303 43.837 74.5417 43.589L71.5975 39.7167C71.2833 39.3035 71.7291 38.7443 72.202 38.9587L76.6323 40.9675C76.9161 41.0962 77.2472 40.9367 77.3235 40.6346L78.5152 35.9184Z" fill="black"/>
</svg>
